<svg width="213" height="100" viewBox="0 0 213 100" fill="none" xmlns="http://www.w3.org/2000/svg">
<path d="M213 28.1802C212.741 27.8248 212.548 27.3723 212.645 27.0168V21.8138C212.645 20.6504 212.645 18.259 207.959 18.259C206.731 18.162 205.567 18.4206 204.404 18.873C203.434 19.3254 202.723 20.295 202.626 21.426L206.343 21.3291C206.504 20.7151 206.698 20.4565 207.571 20.4565C208.734 20.4565 208.896 20.909 208.896 21.523C208.185 21.6846 207.474 21.8785 206.763 21.9754C204.985 22.234 203.919 22.3309 203.046 23.2035C202.529 23.7205 202.174 24.5285 202.239 25.2394C202.239 26.8229 203.305 28.3418 205.793 28.3418C206.957 28.4388 208.088 28.0833 209.057 27.4693V28.1802H213ZM208.928 23.7528C208.928 24.1083 208.928 24.5608 208.767 24.9163C208.411 25.5303 207.7 25.9827 206.989 25.9827C206.278 25.9827 206.02 25.5303 206.02 25.2717C206.02 25.1748 206.02 24.7547 206.828 24.3992C207.183 24.3022 207.538 24.2376 207.797 24.1406C208.12 24.0114 208.573 23.8498 208.928 23.7528ZM197.165 28.1802H201.14V18.6145H197.165V28.1802ZM197.165 17.645H201.14V15.0919H197.165V17.645ZM191.574 28.1802H195.484V22.1693C195.581 21.1029 195.226 20.1334 194.515 19.3254C193.707 18.7114 192.737 18.3559 191.768 18.3559C189.473 18.3559 188.569 19.5193 188.31 20.1334C187.954 19.3254 187.244 18.8084 186.371 18.6145C185.854 18.4529 185.401 18.3559 184.852 18.3559C183.624 18.259 182.364 18.873 181.75 19.9395V18.6145H177.936V28.1802H181.911V22.9772C181.911 22.6218 182.008 22.1693 182.267 21.9108C182.525 21.6523 182.978 21.4584 183.333 21.5553C183.947 21.4584 184.497 21.9108 184.658 22.5248C184.658 22.6864 184.755 22.8803 184.755 23.0419V28.2772H188.73V23.0419C188.633 22.3309 189.086 21.6199 189.893 21.523C189.99 21.523 190.152 21.523 190.249 21.523C191.574 21.523 191.671 22.5894 191.671 23.2035L191.574 28.1802ZM170.051 24.1083H176.967C176.87 22.6864 176.87 21.0059 175.448 19.6809C174.381 18.7114 172.895 18.162 171.473 18.259C168.274 18.259 165.979 20.2949 165.979 23.3974C165.979 26.0473 167.756 28.6327 171.473 28.6327C173.606 28.7296 175.545 27.7601 176.708 25.9827L173.444 24.6577C173.186 25.3687 172.475 25.8858 171.667 25.8858C171.214 25.8858 170.794 25.7242 170.503 25.4333C170.245 25.0778 170.051 24.5608 170.051 24.1083ZM170.051 22.0724C170.051 21.2645 170.762 20.6504 171.57 20.6504C172.184 20.6504 172.733 21.0059 172.895 21.6199C172.895 21.7815 172.895 21.8785 172.992 22.0724H170.051ZM165.979 42.7228C165.979 45.3728 167.756 47.9581 171.473 47.9581C173.606 48.0551 175.642 47.0856 176.773 45.3082L173.509 43.9832C173.25 44.6941 172.539 45.2112 171.731 45.2112C171.279 45.2112 170.859 45.0496 170.568 44.7588C170.213 44.4033 170.051 43.8862 170.116 43.4338H177.031C177.031 41.9149 176.934 40.3314 175.513 39.0064C174.446 38.0369 172.96 37.4875 171.538 37.5844C168.338 37.5844 166.044 39.6204 166.044 42.7228H165.979ZM170.051 41.4625C170.148 40.6545 170.762 40.0405 171.57 40.0405C172.184 40.0405 172.733 40.396 172.895 41.01C172.895 41.1716 172.895 41.2686 172.992 41.4625H170.051ZM160.938 47.5703H164.913V34.482H160.938V47.5703ZM161.132 28.1802H164.945V15.0919H160.938V19.2608C160.227 18.6468 159.354 18.2913 158.385 18.3883C156.252 18.3883 154.054 19.9071 154.054 23.2681C154.054 26.2736 155.638 28.568 158.482 28.568C158.999 28.568 159.451 28.4711 160 28.3095C160.453 28.1479 160.808 27.8571 161.067 27.5016V28.2126H161.132V28.1802ZM161.132 23.3974C161.229 24.1083 161.035 24.7223 160.614 25.2717C160.356 25.5303 160 25.7242 159.645 25.7242C159.289 25.7242 158.934 25.5626 158.675 25.2717C158.223 24.7547 158.061 24.0437 158.158 23.3974C158.158 23.0419 158.158 22.5894 158.255 22.234C158.352 21.523 158.966 21.0059 159.677 21.0059C160.291 21.0059 160.841 21.523 161.002 22.1693C161.035 22.5248 161.132 22.9772 161.132 23.3974ZM149.53 28.1802H153.44C153.182 27.8248 152.988 27.3723 153.085 27.0168V21.8138C153.085 20.6504 153.085 18.259 148.399 18.259C147.171 18.162 146.007 18.4206 144.844 18.873C143.874 19.3254 143.163 20.295 143.066 21.426L146.783 21.3291C146.944 20.7151 147.138 20.4565 148.011 20.4565C149.174 20.4565 149.336 20.909 149.336 21.523C148.625 21.6846 147.914 21.8785 147.203 21.9754C145.426 22.234 144.359 22.3309 143.487 23.2035C142.97 23.7205 142.614 24.5285 142.679 25.2394C142.679 26.8229 143.745 28.3418 146.234 28.3418C147.397 28.4388 148.528 28.0833 149.498 27.4693V28.1802H149.53ZM149.271 23.7528C149.271 24.1083 149.271 24.5608 149.11 24.9163C148.754 25.5303 148.043 25.9827 147.332 25.9827C146.621 25.9827 146.363 25.5303 146.363 25.2717C146.363 25.1748 146.363 24.7547 147.171 24.3992C147.526 24.3022 147.882 24.2376 148.14 24.1406C148.463 24.0114 148.916 23.8498 149.271 23.7528ZM142.452 42.5289C142.452 39.168 140.32 37.6491 138.122 37.6491C137.152 37.5521 136.248 37.9076 135.569 38.6186V34.482H131.594V47.5703H135.407V46.8594C135.666 47.2148 136.021 47.3764 136.377 47.5703C136.829 47.7319 137.346 47.8289 137.896 47.8289C140.772 47.8289 142.452 45.5344 142.452 42.5289ZM138.542 42.7228C138.639 43.4338 138.445 44.0478 138.025 44.5972C137.767 44.8557 137.411 45.0496 137.056 45.0496C136.345 45.0496 135.827 44.5972 135.731 43.8862C135.634 43.5307 135.569 43.0783 135.569 42.7228C135.472 42.0118 135.731 41.3978 136.086 40.8484C136.345 40.5899 136.7 40.396 137.056 40.396C137.767 40.396 138.381 40.9131 138.477 41.624C138.542 42.0118 138.542 42.3673 138.542 42.7228ZM135.698 23.3974C135.698 21.9754 136.312 20.8443 137.476 20.8443C138.348 20.8443 139.059 21.4584 139.156 22.3632L142.162 20.6828C142 20.3273 141.709 19.9718 141.354 19.7132C140.287 18.6468 138.801 18.1297 137.282 18.1944C135.763 18.0974 134.276 18.6468 133.21 19.7132C132.24 20.6828 131.691 22.0077 131.788 23.4297C131.626 26.1766 133.727 28.4711 136.377 28.665C136.635 28.665 136.829 28.665 137.088 28.665C138.607 28.7619 140.093 28.2126 141.257 27.1461C141.709 26.6937 141.968 26.2736 142.226 25.7242L139.221 24.1406C139.059 24.6577 138.704 25.7242 137.443 25.7242C135.892 25.6272 135.698 24.2053 135.698 23.3974ZM135.537 53.8721H131.626V56.8776H130.301V58.9135H131.626L131.529 63.5025C131.432 64.2135 131.691 64.9244 132.143 65.4415C132.854 65.9586 133.824 66.3141 134.696 66.2494C135.504 66.2494 136.377 66.1525 137.185 66.0879V63.4379C136.926 63.5348 136.732 63.5348 136.474 63.5348C135.407 63.5348 135.407 62.9208 135.407 62.5653V58.9458H137.185V56.9099H135.504V53.8721H135.537ZM125.001 23.3974C125.001 21.9754 125.615 20.8443 126.779 20.8443C127.651 20.8443 128.362 21.4584 128.459 22.3632L131.465 20.6828C131.303 20.3273 131.012 19.9718 130.657 19.7132C129.59 18.6468 128.104 18.1297 126.585 18.1944C125.066 18.0974 123.579 18.6468 122.513 19.7132C121.543 20.6828 120.994 22.0077 121.091 23.4297C120.929 26.1766 123.03 28.4711 125.68 28.665C125.939 28.665 126.132 28.665 126.391 28.665C127.91 28.7619 129.396 28.2126 130.56 27.1461C131.012 26.6937 131.271 26.2736 131.529 25.7242L128.524 24.1406C128.362 24.6577 128.007 25.7242 126.746 25.7242C125.163 25.6272 125.001 24.2053 125.001 23.3974ZM128.815 56.4251C127.587 56.2635 126.423 56.6837 125.551 57.4916V56.619H121.737V66.1525H125.648V61.6281C125.648 61.0141 125.745 59.5922 128.039 59.5922C128.298 59.5922 128.556 59.5922 128.847 59.5922L128.815 56.4251ZM125.971 37.9399H121.996V47.6026H125.971V37.9399ZM125.971 34.482H121.996V37.035H125.971V34.482ZM127.037 77.6896C126.326 77.8512 125.615 78.0451 124.904 78.142C123.127 78.3036 122.061 78.4975 121.188 79.3701C120.671 79.8871 120.315 80.5981 120.315 81.406C120.315 82.9895 121.382 84.5084 123.87 84.5084C125.034 84.6054 126.165 84.2499 127.134 83.5389V84.2499H131.045C130.786 83.8944 130.592 83.442 130.689 83.0865V77.8512C130.689 76.6878 130.689 74.2963 126.003 74.2963C124.775 74.2963 123.612 74.4579 122.448 74.9103C121.479 75.3628 120.768 76.3323 120.671 77.4634L124.387 77.3664C124.549 76.6554 124.743 76.4939 125.615 76.4939C126.843 76.6231 127.037 77.0433 127.037 77.6896ZM127.037 79.7902C127.037 80.1457 127.037 80.5981 126.876 80.9536C126.52 81.5676 125.809 82.02 125.001 82.02C124.29 82.02 124.032 81.5676 124.032 81.3091C124.032 81.2121 124.032 80.792 124.84 80.4365C125.195 80.3396 125.551 80.2749 125.809 80.178C126.229 80.081 126.682 79.8871 127.037 79.7902ZM116.599 47.5703H120.412V34.482H116.437V38.6509C115.726 38.0369 114.854 37.6814 113.884 37.6814C111.751 37.6814 109.554 39.2003 109.554 42.5612C109.554 45.5667 111.137 47.8612 113.981 47.8612C114.498 47.8612 114.951 47.7642 115.5 47.6026C115.953 47.5057 116.308 47.2472 116.47 46.8917L116.599 47.5703ZM116.599 42.7228C116.696 43.4338 116.502 44.0478 116.082 44.5972C115.823 44.8557 115.468 45.0496 115.112 45.0496C114.757 45.0496 114.401 44.888 114.143 44.5972C113.69 44.0801 113.529 43.3691 113.626 42.7228C113.626 42.3673 113.626 41.9149 113.723 41.5594C113.82 40.7515 114.595 40.2344 115.306 40.396C115.823 40.4929 116.373 40.9131 116.47 41.4625C116.502 41.9149 116.599 42.3673 116.599 42.7228ZM116.502 28.1802H120.412C120.154 27.8248 119.96 27.3723 120.057 27.0168V21.8138C120.057 20.6504 120.057 18.259 115.371 18.259C114.143 18.162 112.98 18.4206 111.816 18.873C110.847 19.3254 110.136 20.295 110.039 21.426L113.755 21.3291C113.852 20.7151 114.111 20.4565 114.983 20.4565C116.147 20.4565 116.308 20.909 116.308 21.523C115.597 21.6846 114.886 21.8785 114.175 21.9754C112.398 22.234 111.331 22.3309 110.459 23.2035C109.942 23.7205 109.586 24.4315 109.586 25.2394C109.586 26.8229 110.653 28.3418 113.141 28.3418C114.305 28.4388 115.436 28.0833 116.405 27.4693L116.502 28.1802ZM116.244 23.7528C116.244 24.1083 116.244 24.5608 116.082 24.9163C115.726 25.6272 115.015 25.9827 114.208 25.9827C113.497 25.9827 113.238 25.5303 113.238 25.2717C113.238 25.1748 113.238 24.7547 114.046 24.3992C114.401 24.3022 114.757 24.2376 115.015 24.1406C115.339 24.0114 115.791 23.8498 116.244 23.7528ZM99.665 49.8648L81.2444 36.8411L85.0578 14.6072L62.8239 18.4206L49.8002 0L36.7765 18.4206L14.6072 14.6395L18.4206 36.8735L0 49.8971L18.4206 62.9208L14.6072 85.1548L36.8411 81.3414L49.8648 99.762L62.8885 81.3414L85.1224 85.1548L81.3091 62.9208L99.665 49.8648ZM26.4675 76.1707L44.274 70.5153L37.3582 78.1097L26.4675 76.1707ZM24.4315 24.4638L46.924 33.1247L33.1247 46.924L24.4315 24.4638ZM29.2144 44.3063L21.5876 37.3905L23.5266 26.4998L29.2144 44.3063ZM29.2144 55.4556L23.5589 73.2622L21.6199 62.3714L29.2144 55.4556ZM48.249 35.807V48.2813H35.6777L48.249 35.807ZM48.249 51.4807V63.9549L35.6777 51.4807H48.249ZM46.924 66.508L24.2376 75.3628L33.1894 52.7733L46.924 66.508ZM18.5822 81.1152L20.1657 68.7055L21.7492 77.9158L30.9595 79.4993L18.5822 81.1152ZM7.07738 50.8666L28.9559 51.5776L20.198 60.594L7.07738 50.8666ZM20.1657 39.2649L28.9235 48.2813L7.04506 48.8953L20.1657 39.2649ZM30.9918 20.2303L21.7815 21.8138L20.198 31.0241L18.6145 18.6145L30.9918 20.2303ZM37.3582 21.6523L44.274 29.279L26.4675 23.5913L37.3582 21.6523ZM48.863 7.1097L48.152 28.9882L39.1356 20.2303L48.863 7.1097ZM48.863 92.6523L39.1356 79.564L48.152 70.8061L48.863 92.6523ZM79.4993 60.594L70.7415 51.5776L92.6199 50.8666L79.4993 60.594ZM51.416 64.0519V51.4807H63.8903L51.416 64.0519ZM66.4757 52.9026L75.3305 75.5567L52.6764 66.7019L66.4757 52.9026ZM51.416 48.2813V35.807L63.8903 48.2813H51.416ZM52.7733 33.2217L75.2335 24.4638L66.5726 46.9563L52.7733 33.2217ZM76.1384 26.4998L78.0774 37.3905L70.4506 44.3063L76.1384 26.4998ZM70.4506 55.4556L78.0774 62.3714L76.1384 73.2622L70.4506 55.4556ZM68.7055 79.5316L77.9158 77.9481L79.4993 68.7378L81.0828 81.1475L68.7055 79.5316ZM62.3068 78.1097L55.391 70.4829L73.1975 76.1384L62.3068 78.1097ZM50.802 92.6523L51.513 70.8707L60.5294 79.6286L50.802 92.6523ZM60.5617 20.2303L51.513 28.9882L50.802 7.1097L60.5617 20.2303ZM73.1975 23.5913L55.391 29.2467L62.3068 21.6199L73.1975 23.5913ZM81.0828 18.6145L79.4993 31.0241L77.9158 21.8138L68.7055 20.2303L81.0828 18.6145ZM92.5876 48.9923L70.8061 48.2813L79.564 39.2649L92.5876 48.9923ZM111.008 75.7183C110.039 76.6878 109.586 78.0127 109.586 79.4347C109.425 82.1816 111.461 84.4761 114.175 84.67C114.434 84.67 114.628 84.67 114.886 84.67C116.405 84.767 117.892 84.2176 119.055 83.1511C119.508 82.6987 119.766 82.2786 120.025 81.7292L117.019 80.1457C116.858 80.6627 116.502 81.7292 115.242 81.7292C113.723 81.7292 113.561 80.3072 113.561 79.5316C113.561 78.1097 114.175 76.9786 115.339 76.9786C116.147 76.9786 116.858 77.5926 117.019 78.4006L120.025 76.7201C119.863 76.3646 119.572 76.0091 119.217 75.7506C118.15 74.6841 116.664 74.1671 115.145 74.2317C113.594 74.2317 112.172 74.7488 111.008 75.7183ZM116.308 59.6245C115.597 59.7861 114.886 59.98 114.175 60.0769C112.398 60.2385 111.331 60.4324 110.459 61.305C109.942 61.822 109.586 62.533 109.586 63.3409C109.586 64.9244 110.653 66.4433 113.141 66.4433C114.305 66.5403 115.436 66.1848 116.405 65.4738V66.1848H120.315C120.057 65.8293 119.863 65.3769 119.96 65.0214V59.7861C119.96 58.6227 119.96 56.2312 115.274 56.2312C114.046 56.1343 112.883 56.3928 111.719 56.8452C110.75 57.2977 110.039 58.2672 109.942 59.3983L113.658 59.3013C113.755 58.5904 114.014 58.4288 114.886 58.4288C116.147 58.4611 116.308 58.9135 116.308 59.6245ZM116.308 61.7574C116.308 62.2098 116.211 62.5653 116.05 62.9208C115.694 63.5348 114.983 63.9873 114.175 63.9873C113.464 63.9873 113.206 63.5348 113.206 63.2763C113.206 63.1793 113.206 62.7592 114.014 62.4037C114.369 62.3068 114.725 62.2422 115.08 62.1452C115.436 62.0483 115.888 61.8867 116.244 61.7897L116.308 61.7574ZM132.984 74.9426H131.562V76.9786H132.887L132.79 81.6646C132.693 82.3755 132.951 83.0865 133.501 83.6036C134.212 84.1206 135.181 84.4761 136.054 84.4115C136.862 84.4115 137.734 84.3145 138.542 84.2499V81.5999C138.284 81.5999 138.09 81.6969 137.831 81.6969C136.765 81.6969 136.765 81.0828 136.765 80.7274V77.0109H138.542V74.975H136.862V71.9695H132.887L132.984 74.9426ZM142.97 53.1611H138.995V55.7142H142.905L142.97 53.1611ZM142.97 56.619H138.995V66.1525H142.905L142.97 56.619ZM139.964 79.3701C139.447 79.8871 139.091 80.5981 139.091 81.406C139.091 82.9895 140.158 84.5084 142.646 84.5084C143.81 84.6054 144.941 84.2499 145.91 83.5389V84.2499H149.821C149.562 83.8944 149.368 83.442 149.465 83.0865V77.8512C149.465 76.6878 149.465 74.2963 144.779 74.2963C143.551 74.1994 142.388 74.4579 141.224 74.9103C140.255 75.3628 139.544 76.3323 139.447 77.4634L143.163 77.3664C143.26 76.6554 143.519 76.4939 144.391 76.4939C145.555 76.4939 145.716 76.9463 145.716 77.5603C145.005 77.7219 144.294 77.9158 143.584 78.0128C141.903 78.3036 140.837 78.4652 139.964 79.3701ZM142.808 81.3091C142.808 81.2121 142.808 80.792 143.616 80.4365C143.971 80.3396 144.327 80.2749 144.585 80.178C145.038 80.081 145.393 79.9194 145.749 79.8225C145.749 80.178 145.749 80.6304 145.587 80.9859C145.232 81.5999 144.521 82.0524 143.713 82.0524C143.066 82.02 142.808 81.4706 142.808 81.3091ZM147.849 44.8234C147.494 44.4679 147.332 43.9508 147.397 43.4984H154.313C154.216 41.9795 154.216 40.396 152.794 39.071C151.727 38.1015 150.241 37.5521 148.819 37.6491C145.619 37.6491 143.325 39.685 143.325 42.7874C143.325 45.4374 145.102 48.0228 148.819 48.0228C150.952 48.1197 152.988 47.1502 154.119 45.3728L150.855 44.0478C150.596 44.7588 149.885 45.2758 149.077 45.2758C148.625 45.2758 148.205 45.0819 147.849 44.8234ZM147.397 41.4625C147.494 40.6545 148.108 40.0405 148.916 40.0405C149.53 40.0405 150.079 40.396 150.241 41.01C150.241 41.1716 150.338 41.2686 150.338 41.4625H147.397ZM155.379 47.5703H159.354V34.482H155.379V47.5703ZM154.927 74.6518H151.21V84.3145H155.185V79.1761C155.185 78.6591 155.185 77.5926 156.607 77.5926C158.029 77.5926 157.932 78.5621 157.932 79.0146V84.2499H161.843V78.1097C161.939 77.0432 161.584 75.9768 160.873 75.2012C160.162 74.5872 159.193 74.2317 158.223 74.3286C156.898 74.1671 155.67 74.7811 154.959 75.8475V74.6518H154.927ZM167.498 71.2262H163.523V73.7793H167.498C167.498 73.6823 167.498 71.2262 167.498 71.2262ZM167.498 74.6518H163.523V84.3145H167.498V74.6518ZM169.631 79.3701C169.114 79.8871 168.758 80.695 168.823 81.406C168.823 82.9895 169.889 84.5084 172.378 84.5084C173.541 84.6054 174.672 84.2499 175.642 83.5389V84.2499H179.552C179.294 83.8944 179.1 83.442 179.197 83.0865V77.8512C179.197 76.6878 179.197 74.2963 174.511 74.2963C173.283 74.2963 172.119 74.4579 170.956 74.9103C169.986 75.3628 169.275 76.3323 169.178 77.4634L172.895 77.3664C173.056 76.6554 173.25 76.4939 174.123 76.4939C175.286 76.4939 175.448 76.9463 175.448 77.5603C174.737 77.7219 174.026 77.9158 173.315 78.0128C171.57 78.3036 170.503 78.4652 169.631 79.3701ZM172.378 81.3091C172.378 81.2121 172.378 80.792 173.186 80.4365C173.541 80.3396 173.897 80.2749 174.155 80.178C174.511 80.081 174.963 79.9194 175.319 79.8225C175.319 80.178 175.319 80.6304 175.157 80.9859C174.802 81.5999 174.091 82.0524 173.38 82.0524C172.669 82.0524 172.442 81.5676 172.378 81.3091Z" fill="white"/>
</svg>
